<?xml version="1.0" standalone="no"?>
<!DOCTYPE svg PUBLIC "-//W3C//DTD SVG 20010904//EN"
 "http://www.w3.org/TR/2001/REC-SVG-20010904/DTD/svg10.dtd">
<svg version="1.0" xmlns="http://www.w3.org/2000/svg"
 width="212.000000pt" height="212.000000pt" viewBox="0 0 212.000000 212.000000"
 preserveAspectRatio="xMidYMid meet">

<g transform="translate(0.000000,212.000000) scale(0.100000,-0.100000)"
fill="#000000" stroke="none">
<path d="M741 1501 l-431 -276 0 -121 0 -121 219 -77 219 -77 113 72 c63 39
119 77 126 83 9 8 -31 26 -162 70 -178 61 -208 74 -190 82 20 9 810 516 823
529 12 10 -13 22 -136 63 l-149 50 -432 -277z"/>
<path d="M1160 1234 c-63 -41 -118 -78 -122 -82 -4 -4 78 -36 181 -72 104 -36
189 -69 190 -75 1 -5 -185 -129 -413 -275 -229 -146 -416 -268 -416 -271 0 -3
66 -28 148 -56 l147 -50 365 234 c201 128 395 252 433 276 l67 42 -2 124 -3
123 -210 73 c-115 40 -219 75 -230 78 -14 4 -55 -17 -135 -69z"/>
</g>
</svg>
